<?xml version="1.0"?>
<svg width="1920" height="913" xmlns="http://www.w3.org/2000/svg" xmlns:svg="http://www.w3.org/2000/svg">
 <defs>
  <clipPath id="clip0_60_9">
   <rect fill="white" height="913" id="svg_1" width="1920"/>
  </clipPath>
 </defs>
 <g class="layer">
  <title>Layer 1</title>
  <g clip-path="url(#clip0_60_9)" id="svg_2">
   <path d="m1920,913c0,0 0,-613.29 0,-692.66c-46.74,-7.86 -102.48,10.69 -151.05,2.93c-48.13,-7.69 -90.39,-43.05 -140.51,-49.26c-48.64,-6.01 -103.44,17.28 -153.77,12.74c-49.02,-4.44 -95.09,-36.93 -145.54,-39.91c-49.29,-2.92 -101.41,23.72 -151.91,22.25c-49.46,-1.44 -98.75,-31.07 -149.22,-31.07c-50.47,0 -99.75,29.63 -149.21,31.07c-50.49,1.47 -102.61,-25.17 -151.9,-22.25c-50.44,2.98 -96.52,35.46 -145.54,39.9c-50.33,4.56 -105.12,-18.74 -153.76,-12.73c-50.13,6.21 -92.39,41.58 -140.52,49.26c-49.82,7.95 -107.19,-11.43 -154.65,-1.97c-49.02,9.77 -86.31,47.62 -132.42,59.31c0,28.08 0,632.39 0,632.39l1920,0z" fill="#2a2f4b" id="svg_3"/>
  </g>
 </g>
</svg>