<?xml version="1.0"?>
<svg width="1920" height="913" xmlns="http://www.w3.org/2000/svg" xmlns:svg="http://www.w3.org/2000/svg">
 <defs>
  <clipPath id="clip0_60_9">
   <rect fill="white" height="913" id="svg_1" width="1920"/>
  </clipPath>
 </defs>
 <g class="layer">
  <title>Layer 1</title>
  <g clip-path="url(#clip0_60_9)" id="svg_2">
   <path d="m1920,913c0,0 0,-692.42 0,-782.04c-46.74,-8.87 -102.48,12.07 -151.05,3.31c-48.13,-8.68 -90.39,-48.61 -140.51,-55.62c-48.64,-6.79 -103.44,19.51 -153.77,14.38c-49.02,-5.01 -95.09,-41.69 -145.54,-45.06c-49.29,-3.3 -101.41,26.78 -151.91,25.12c-49.46,-1.63 -98.75,-35.08 -149.22,-35.08c-50.47,0 -99.75,33.45 -149.21,35.08c-50.49,1.66 -102.61,-28.42 -151.9,-25.12c-50.44,3.37 -96.52,40.04 -145.54,45.05c-50.33,5.15 -105.12,-21.16 -153.76,-14.37c-50.13,7.01 -92.39,46.94 -140.52,55.62c-49.82,8.98 -107.19,-12.91 -154.65,-2.22c-49.02,11.03 -86.31,53.76 -132.42,66.96c0,31.7 0,713.99 0,713.99l1920,0z" fill="#2a2f4b" id="svg_3"/>
  </g>
 </g>
</svg>