<?xml version="1.0"?>
<svg width="1920" height="812" xmlns="http://www.w3.org/2000/svg" xmlns:svg="http://www.w3.org/2000/svg">
 <g class="layer">
  <title>Layer 1</title>
  <path clip-rule="evenodd" d="m1920,0c0,0 0,621.49 0,715c-46.74,9.26 -102.48,-12.59 -151.05,-3.45c-48.13,9.06 -90.39,50.72 -140.51,58.04c-48.64,7.09 -103.44,-20.36 -153.77,-14.99c-49.02,5.22 -95.09,43.49 -145.54,47.01c-49.29,3.44 -101.41,-27.94 -151.91,-26.21c-49.46,1.7 -98.75,36.6 -149.22,36.6c-50.47,0 -99.75,-34.9 -149.21,-36.6c-50.49,-1.73 -102.61,29.65 -151.9,26.21c-50.44,-3.52 -96.52,-41.78 -145.54,-47.01c-50.33,-5.37 -105.12,22.08 -153.76,14.99c-50.13,-7.31 -92.39,-48.98 -140.52,-58.04c-49.82,-9.37 -107.19,13.47 -154.65,2.32c-49.02,-11.51 -86.31,-56.1 -132.42,-69.87c0,-33.08 0,-644 0,-644l1920,0z" fill="#2a2f4b" fill-rule="evenodd" id="svg_1"/>
 </g>
</svg>