<?xml version="1.0"?>
<svg width="722" height="528" xmlns="http://www.w3.org/2000/svg" xmlns:svg="http://www.w3.org/2000/svg" xmlns:xlink="http://www.w3.org/1999/xlink" preserveAspectRatio="xMidYMid meet" version="1.0">
 <!-- Created with SVG-edit - https://github.com/SVG-Edit/svgedit-->
 <defs>
  <symbol id="svg_7" viewBox="0 0 1418 125" xmlns="http://www.w3.org/2000/svg">
   <path d="m1412.29,72.17c-11.04,-5.78 -20.07,-14.33 -85.46,-25.24c-22.37,-3.63 -44.69,-7.56 -67.07,-11.04c-167.11,-22.06 -181.65,-21.24 -304.94,-30.56c-66.04,-3.94 -132.25,-4.23 -198.38,-5.33c-46.63,-0.11 -93.27,1.56 -139.89,2.5c-251.05,11.05 -163.69,5.18 -338.61,20.65c-75.37,10.17 -150.56,21.86 -225.87,32.54c-11.23,2.41 -22.63,4.17 -33.71,7.22c-12.26,3.42 -12.72,3.28 -14.47,4.88c-7.99,5.78 -2.98,20.14 8.72,17.5c33.99,-9.47 32.28,-8.57 178.06,-29.66c4.26,4.48 7.29,3.38 18.42,3.11c13.19,-0.32 26.38,-0.53 39.56,-1.12c53.51,-3.81 106.88,-9.62 160.36,-13.95c18.41,-1.3 36.8,-3.12 55.21,-4.7c23.21,-1.16 46.43,-2.29 69.65,-3.4c120.28,-2.16 85.46,-3.13 234.65,-1.52c23.42,0.99 1.57,-0.18 125.72,6.9c96.61,8.88 200.92,27.94 295.42,46.12c40.87,7.91 116.67,23.2 156.31,36.78c3.81,1.05 8.28,-0.27 10.51,-3.58c3.17,-3.72 2.66,-9.7 -0.78,-13.13c-3.25,-3.12 -8.14,-3.44 -12.18,-5.08c-17.89,-5.85 -44.19,-12.09 -63.67,-16.56l26.16,3.28c23.02,3.13 46.28,3.92 69.34,6.75c10.8,0.96 25.43,1.81 34.34,-4.39c2.26,-1.54 4.86,-2.75 6.21,-5.27c2.76,-4.59 1.13,-11.06 -3.59,-13.68l-0.02,-0.02zm-486.89,-48.4c37.64,1.4 153.99,10.85 196.64,14.94c45.95,5.51 91.89,11.03 137.76,17.19c24.25,4.77 74.13,11.21 101.72,18.14c-11.87,-1.15 -23.77,-1.97 -35.65,-3.06c-133.46,-15.9 -266.8,-33.02 -400.47,-47.21z"/>
  </symbol>
 </defs>
 <g class="layer">
  <title>Layer 1</title>
  <path fill="#F5F2EB" id="svg_1"/>
  <path fill="#F5F2EB" id="svg_2"/>
  <rect fill="#F5F2EB" height="0" id="svg_3" width="0" x="-161.41" y="123"/>
  <use fill="#ed3237" id="svg_8" transform="rotate(-45.8856 118.783 128.242) matrix(0.490106 0 0 0.665977 2.94877 -121.44)" x="-124.46" xlink:href="#svg_7" y="111.11"/>
  <use fill="#ed3237" id="svg_9" transform="rotate(127.025 617.864 389.868) matrix(0.490106 0 0 0.849918 439.03 55.9864)" x="4.08" xlink:href="#svg_7" y="129.04"/>
 </g>
</svg>